<?xml version="1.0" encoding="UTF-8"?>
<svg id="Camada_1" data-name="Camada 1" xmlns="http://www.w3.org/2000/svg" viewBox="0 0 66.69 66.45">
  <defs>
    <style>
      .cls-1 {
        fill: #282726;
        stroke-width: 0px;
      }
    </style>
  </defs>
  <path class="cls-1" d="m55.79,21.24l-6.41-6.41c.02-.08.05-.15.05-.23V1.42c0-.55-.45-.99-.99-.99,0,0,0,0-.01,0,0,0,0,0-.01,0h-7.47s0,0-.01,0c0,0,0,0-.01,0-.55,0-.99.45-.99.99v3.95L34.88.33c-.22-.22-.51-.33-.81-.33-.29,0-.58.1-.81.33L12.35,21.24c-.44.44-.44,1.15,0,1.59h0c.44.44,1.15.44,1.59,0l2.15-2.15v27.36c0,.62.5,1.12,1.12,1.12s1.12-.5,1.12-1.12v-29.58s0-.01,0-.02l15.75-15.75,15.35,15.35v29.99c0,.62.5,1.12,1.12,1.12s1.12-.5,1.12-1.12v-27.75l2.54,2.54c.44.44,1.15.44,1.59,0h0c.44-.44.44-1.15,0-1.59Zm-13.88-14.23V2.45h5.52v10.43l-5.58-5.58c.03-.09.06-.19.06-.29Z"/>
  <g>
    <path class="cls-1" d="m7.83,54.59c1,.51,1.77,1.24,2.31,2.19s.81,2.05.81,3.3-.27,2.35-.81,3.29c-.54.94-1.31,1.66-2.31,2.18-1,.51-2.15.77-3.47.77H0v-12.5h4.37c1.31,0,2.47.26,3.47.77Zm-.51,8.52c.72-.72,1.07-1.73,1.07-3.03s-.36-2.32-1.07-3.05-1.73-1.1-3.04-1.1h-1.77v8.26h1.77c1.31,0,2.33-.36,3.04-1.07Z"/>
    <path class="cls-1" d="m17.14,55.84v3.13h4.21v1.99h-4.21v3.31h4.75v2.04h-7.25v-12.52h7.25v2.04h-4.75Z"/>
    <path class="cls-1" d="m26.17,56.75c.56-.97,1.31-1.73,2.27-2.27.96-.54,2.04-.81,3.23-.81,1.4,0,2.62.36,3.67,1.07s1.78,1.71,2.2,2.97h-2.88c-.29-.6-.69-1.04-1.21-1.34-.52-.3-1.12-.45-1.8-.45-.73,0-1.38.17-1.94.51s-1.01.82-1.33,1.44c-.32.62-.47,1.35-.47,2.19s.16,1.55.47,2.18c.32.63.76,1.11,1.33,1.45s1.21.51,1.94.51c.68,0,1.28-.15,1.8-.46.52-.3.92-.75,1.21-1.35h2.88c-.42,1.28-1.15,2.27-2.19,2.98-1.04.71-2.27,1.07-3.68,1.07-1.19,0-2.27-.27-3.23-.81-.96-.54-1.72-1.3-2.27-2.27-.56-.97-.83-2.07-.83-3.3s.28-2.33.83-3.3Z"/>
    <path class="cls-1" d="m44.07,65.62c-.98-.55-1.75-1.31-2.33-2.28-.57-.97-.86-2.07-.86-3.3s.29-2.31.86-3.29c.57-.97,1.35-1.73,2.33-2.28s2.05-.82,3.22-.82,2.26.27,3.23.82,1.74,1.31,2.31,2.28c.57.97.85,2.07.85,3.29s-.28,2.33-.85,3.3c-.57.97-1.34,1.73-2.32,2.28s-2.05.82-3.22.82-2.24-.27-3.22-.82Zm5.21-1.93c.57-.34,1.02-.83,1.34-1.46s.48-1.37.48-2.2-.16-1.57-.48-2.19c-.32-.63-.77-1.11-1.34-1.44-.57-.33-1.24-.5-1.99-.5s-1.42.17-2,.5c-.58.33-1.03.81-1.35,1.44-.32.63-.48,1.36-.48,2.19s.16,1.57.48,2.2c.32.63.77,1.12,1.35,1.46.58.34,1.24.51,2,.51s1.42-.17,1.99-.51Z"/>
    <path class="cls-1" d="m63.79,66.32l-2.76-4.87h-1.18v4.87h-2.51v-12.5h4.69c.97,0,1.79.17,2.47.51.68.34,1.19.8,1.53,1.38.34.58.51,1.23.51,1.94,0,.82-.24,1.57-.72,2.23-.48.66-1.19,1.12-2.13,1.37l2.99,5.07h-2.9Zm-3.94-6.75h2.1c.68,0,1.19-.16,1.52-.49.33-.33.5-.78.5-1.37s-.17-1.02-.5-1.33c-.33-.32-.84-.47-1.52-.47h-2.1v3.67Z"/>
  </g>
</svg>