<?xml version="1.0" encoding="UTF-8"?>
<svg id="Camada_1" data-name="Camada 1" xmlns="http://www.w3.org/2000/svg" viewBox="0 0 15 15">
  <defs>
    <style>
      .cls-1 {
        fill: #393733;
        stroke-width: 0px;
      }
    </style>
  </defs>
  <path class="cls-1" d="m7.5,1.35c2,0,2.24,0,3.03.04.73.03,1.13.16,1.39.26.35.14.6.3.86.56.26.26.42.51.56.86.1.26.22.66.26,1.39.04.79.04,1.03.04,3.03s0,2.24-.04,3.03c-.03.73-.16,1.13-.26,1.39-.14.35-.3.6-.56.86-.26.26-.51.42-.86.56-.26.1-.66.23-1.39.26-.79.04-1.03.04-3.03.04s-2.24,0-3.03-.04c-.73-.03-1.13-.16-1.39-.26-.35-.14-.6-.3-.86-.56-.26-.26-.42-.51-.56-.86-.1-.26-.22-.66-.26-1.39-.04-.79-.04-1.03-.04-3.03s0-2.24.04-3.03c.03-.73.16-1.13.26-1.39.14-.35.3-.6.56-.86.26-.26.51-.42.86-.56.26-.1.66-.23,1.39-.26.79-.04,1.03-.04,3.03-.04m0-1.35c-2.04,0-2.29,0-3.09.05-.8.04-1.34.16-1.82.35-.49.19-.91.45-1.33.87-.42.42-.67.84-.86,1.33-.19.48-.31,1.02-.35,1.82-.04.8-.05,1.06-.05,3.09s0,2.29.05,3.09c.04.8.16,1.34.35,1.82.19.49.45.91.86,1.33s.84.67,1.33.87c.48.19,1.02.31,1.82.35.8.04,1.06.05,3.09.05s2.29,0,3.09-.05c.8-.04,1.34-.16,1.82-.35.49-.19.91-.45,1.33-.87.42-.42.67-.84.87-1.33.19-.48.31-1.02.35-1.82.04-.8.04-1.06.04-3.09s0-2.29-.04-3.09c-.04-.8-.16-1.34-.35-1.82-.19-.49-.45-.91-.87-1.33-.42-.42-.84-.67-1.33-.87-.48-.19-1.02-.31-1.82-.35-.8-.04-1.06-.05-3.09-.05"/>
  <path class="cls-1" d="m7.5,3.65c-2.13,0-3.85,1.72-3.85,3.85s1.72,3.85,3.85,3.85,3.85-1.72,3.85-3.85-1.72-3.85-3.85-3.85m0,6.35c-1.38,0-2.5-1.12-2.5-2.5s1.12-2.5,2.5-2.5,2.5,1.12,2.5,2.5-1.12,2.5-2.5,2.5"/>
  <path class="cls-1" d="m12.4,3.5c0,.5-.4.9-.9.9s-.9-.4-.9-.9.4-.9.9-.9.9.4.9.9"/>
</svg>