<?xml version="1.0" encoding="UTF-8"?>
<svg id="Camada_1" data-name="Camada 1" xmlns="http://www.w3.org/2000/svg" viewBox="0 0 98.17 106.24">
  <defs>
    <style>
      .cls-1 {
        fill: #282726;
        stroke-width: 0px;
      }
    </style>
  </defs>
  <path class="cls-1" d="m76.63,28.66L50.09,1.95h0s-1.95-1.95-1.95-1.95l-28.15,28.65.02.02h-.02v50.55h56.62V28.67h0,0Zm-53.56,47.5V29.53L48.04,4.05l25.52,25.52v46.59H23.07Z"/>
  <g>
    <path class="cls-1" d="m3.06,103.28v-15.87s-3.06,0-3.06,0v18.65h3.03"/>
    <path class="cls-1" d="m15.55,91.82c-.81-1.42-1.97-2.51-3.46-3.27-1.49-.76-3.23-1.14-5.22-1.14h-2.2c.03.33.02.68.04,1.01.02.27,0,.55,0,.83,0,.12.06.23.07.35,0,.11-.07.22-.06.31h2.15c2.18,0,3.85.61,5.02,1.82,1.16,1.22,1.74,2.91,1.74,5.07s-.58,3.81-1.74,4.99c-1.16,1.18-2.83,1.77-5.02,1.77h-2.09c0,.83-.02,1.66-.04,2.5h2.13c1.98,0,3.72-.37,5.22-1.11,1.49-.74,2.65-1.81,3.46-3.21s1.22-3.04,1.22-4.94-.41-3.55-1.22-4.98Z"/>
    <path class="cls-1" d="m25.4,89.87v5.47h6.44v2.5h-6.44v5.71h7.24v2.5h-10.3v-18.67h10.3v2.5h-7.24Z"/>
    <path class="cls-1" d="m40.06,91.78c.85-1.45,2-2.58,3.46-3.39,1.46-.81,3.05-1.22,4.79-1.22,1.99,0,3.75.49,5.3,1.46,1.55.98,2.67,2.36,3.37,4.15h-3.68c-.48-.98-1.15-1.72-2.01-2.2s-1.85-.72-2.98-.72c-1.23,0-2.33.28-3.3.83-.97.55-1.72,1.35-2.27,2.39-.55,1.04-.82,2.24-.82,3.62s.27,2.58.82,3.62c.55,1.04,1.3,1.84,2.27,2.4.97.56,2.07.84,3.3.84,1.13,0,2.12-.24,2.98-.72s1.53-1.22,2.01-2.2h3.68c-.7,1.79-1.82,3.17-3.37,4.13s-3.31,1.45-5.3,1.45c-1.75,0-3.35-.41-4.8-1.22s-2.6-1.95-3.45-3.39c-.85-1.45-1.27-3.09-1.27-4.91s.42-3.46,1.27-4.91Z"/>
    <path class="cls-1" d="m65.71,105.01c-1.46-.81-2.61-1.95-3.46-3.41-.85-1.46-1.27-3.1-1.27-4.92s.42-3.46,1.27-4.91c.85-1.45,2-2.58,3.46-3.39,1.46-.81,3.05-1.22,4.79-1.22s3.36.41,4.82,1.22c1.46.81,2.61,1.94,3.45,3.39.84,1.45,1.26,3.08,1.26,4.91s-.42,3.47-1.26,4.92c-.84,1.46-1.99,2.59-3.45,3.41-1.46.81-3.06,1.22-4.82,1.22s-3.33-.41-4.79-1.22Zm8.09-2.28c.97-.56,1.72-1.37,2.27-2.41.55-1.05.82-2.26.82-3.64s-.27-2.58-.82-3.62c-.55-1.04-1.3-1.83-2.27-2.39-.97-.55-2.07-.83-3.3-.83s-2.33.28-3.3.83c-.97.55-1.72,1.35-2.27,2.39-.55,1.04-.82,2.24-.82,3.62s.27,2.59.82,3.64c.55,1.05,1.3,1.85,2.27,2.41.97.56,2.07.84,3.3.84s2.33-.28,3.3-.84Z"/>
    <path class="cls-1" d="m87.87,87.4h-3.03v18.65h3.06v-7.46h2.33l4.29,7.46h3.65l-4.61-7.73c1.47-.36,2.55-1.03,3.26-2.03.71-.99,1.06-2.1,1.06-3.31,0-1.04-.25-1.98-.74-2.82-.49-.84-1.23-1.51-2.23-2.01-.99-.5-2.2-.75-3.63-.75h-2.3c0,.48.04.96.03,1.44,0,.21-.03.42-.03.62,0,.11.05.17.05.28,0,.02-.04.07-.04.09,0,0,0,0,0,.03,0,.01,0,.03.01.04h2.27c1.16,0,2.03.27,2.6.82.57.55.86,1.3.86,2.27s-.29,1.73-.87,2.31c-.58.57-1.44.86-2.59.86h-3.38v-5.85"/>
  </g>
  <polyline class="cls-1" points="4.67 87.4 4.71 89.9 5.45 88.41 4.69 87.4"/>
  <g>
    <polygon class="cls-1" points="37.28 65.34 42.44 65.34 42.5 60.62 42.5 38.27 42.5 33.53 37.28 33.51 37.28 65.34"/>
    <path class="cls-1" d="m63.81,41.05c-1.39-2.43-3.36-4.29-5.91-5.59-2.55-1.3-5.52-1.95-8.91-1.95h-3.75l.06,3.13s0,0,0,.01c0,0,0,0,0,0l.02,1.12h3.67c3.72,0,6.58,1.04,8.56,3.11,1.98,2.08,2.98,4.96,2.98,8.65s-.99,6.5-2.98,8.52c-1.99,2.02-4.84,3.02-8.56,3.02h-3.57c0,1.42-.03,2.84-.06,4.26h3.63c3.39,0,6.36-.63,8.91-1.9,2.55-1.27,4.52-3.09,5.91-5.47s2.08-5.19,2.08-8.43-.69-6.07-2.08-8.49Z"/>
  </g>
  <polygon class="cls-1" points="89.04 87.4 88.96 87.4 88.96 89.9 89.22 89.9 89.04 87.4"/>
</svg>