<?xml version="1.0" encoding="UTF-8"?>
<svg id="Camada_1" data-name="Camada 1" xmlns="http://www.w3.org/2000/svg" viewBox="0 0 15 12.19">
  <defs>
    <style>
      .cls-1 {
        fill: #393733;
        stroke-width: 0px;
      }
    </style>
  </defs>
  <path class="cls-1" d="m0,10.81c1.36.87,2.98,1.38,4.72,1.38,5.71,0,8.94-4.83,8.75-9.15.6-.43,1.12-.98,1.54-1.59-.55.24-1.15.41-1.77.48.64-.38,1.12-.98,1.35-1.7-.59.35-1.25.61-1.95.75-.56-.6-1.36-.97-2.25-.97-1.99,0-3.45,1.85-3,3.78-2.56-.13-4.83-1.35-6.34-3.22-.81,1.38-.42,3.19.95,4.11-.5-.02-.98-.15-1.39-.39-.03,1.43.99,2.76,2.47,3.06-.43.12-.91.14-1.39.05.39,1.22,1.53,2.11,2.87,2.14-1.29,1.01-2.92,1.47-4.56,1.27Z"/>
</svg>