<?xml version="1.0" encoding="utf-8"?>
<!-- Generator: Adobe Illustrator 27.9.3, SVG Export Plug-In . SVG Version: 9.03 Build 53313)  -->
<svg version="1.1" id="Camada_1" xmlns="http://www.w3.org/2000/svg" xmlns:xlink="http://www.w3.org/1999/xlink" x="0px" y="0px"
	 viewBox="0 0 48 48" style="enable-background:new 0 0 48 48;" xml:space="preserve">
<style type="text/css">
	.st0{fill:#14253C;}
	.st1{fill:#70C3C3;}
	.st2{fill:#EA5866;}
	.st3{fill:#788DB3;}
	.st4{fill:#FBBF46;}
	.st5{fill:#4CBBC0;}
	.st6{fill:#F6E1BB;}
</style>
<g>
	<g>
		<g>
			<path class="st0" d="M37.71,1.86H10.84c-4.71,0-8.54,4.05-8.54,9.05v26.28c0,5,3.82,9.05,8.54,9.05h26.87
				c4.71,0,8.54-4.05,8.54-9.05V10.91C46.25,5.91,42.43,1.86,37.71,1.86z"/>
		</g>
	</g>
	<g>
		<path class="st1" d="M9.09,7.93H6.5c-0.54,0-0.97,0.43-0.97,0.97v12.55h4.53V8.9C10.06,8.36,9.62,7.93,9.09,7.93z"/>
	</g>
	<g>
		<path class="st2" d="M14.58,6.38H12c-0.54,0-0.97,0.43-0.97,0.97v14.1h4.53V7.35C15.55,6.81,15.12,6.38,14.58,6.38z"/>
	</g>
	<g>
		<path class="st3" d="M20.21,8.06h-2.59c-0.54,0-0.97,0.43-0.97,0.97v12.55h4.53V9.03C21.18,8.49,20.74,8.06,20.21,8.06z"/>
	</g>
	<g>
		<path class="st4" d="M26.02,6.51h-2.97c-0.54,0-0.97,0.43-0.97,0.97v14.03h4.91V7.48C26.99,6.94,26.56,6.51,26.02,6.51z"/>
	</g>
	<g>
		<path class="st5" d="M31.46,6.51h-2.59c-0.54,0-0.97,0.43-0.97,0.97v14.03h4.53V7.48C32.43,6.94,31.99,6.51,31.46,6.51z"/>
	</g>
	<g>
		<path class="st4" d="M37.02,7.99h-2.59c-0.54,0-0.97,0.43-0.97,0.97v12.55h4.53V8.96C37.99,8.43,37.55,7.99,37.02,7.99z"/>
	</g>
	<g>
		<path class="st2" d="M41.49,7.99h-1.75c-0.54,0-0.97,0.43-0.97,0.97v12.55h3.69V8.96C42.46,8.43,42.02,7.99,41.49,7.99z"/>
	</g>
	<g>
		<path class="st4" d="M9.09,28.37H5.73c-0.54,0-0.97,0.43-0.97,0.97v14.82h5.3V29.34C10.06,28.8,9.62,28.37,9.09,28.37z"/>
	</g>
	<g>
		<path class="st3" d="M14.58,29.66H12c-0.54,0-0.97,0.43-0.97,0.97v13.36h4.53V30.63C15.55,30.09,15.12,29.66,14.58,29.66z"/>
	</g>
	<g>
		<path class="st2" d="M19.63,28.69h-2.2c-0.54,0-0.97,0.43-0.97,0.97v14.36h4.14V29.66C20.6,29.12,20.16,28.69,19.63,28.69z"/>
	</g>
	<g>
		<path class="st2" d="M25.64,27.2h-2.97c-0.54,0-0.97,0.43-0.97,0.97v15.9h4.91v-15.9C26.61,27.64,26.18,27.2,25.64,27.2z"/>
	</g>
	<g>
		<path class="st5" d="M31.08,30h-2.59c-0.54,0-0.97,0.43-0.97,0.97v13.1h4.53v-13.1C32.05,30.44,31.61,30,31.08,30z"/>
	</g>
	<g>
		<path class="st4" d="M36.64,28.18h-2.59c-0.54,0-0.97,0.43-0.97,0.97v14.93h4.53V29.15C37.61,28.61,37.17,28.18,36.64,28.18z"/>
	</g>
	<g>
		<path class="st2" d="M42.91,29.27h-3.17c-0.54,0-0.97,0.43-0.97,0.97v13.71h5.11V30.24C43.88,29.7,43.45,29.27,42.91,29.27z"/>
	</g>
	<g>
		<rect x="2.81" y="21.45" class="st4" width="42.55" height="2.46"/>
	</g>
	<g>
		<g>
			<path class="st4" d="M38.61,1.4h-29c-5.09,0-9.22,4.13-9.22,9.22v26.77c0,5.09,4.13,9.22,9.22,9.22h29
				c5.09,0,9.22-4.13,9.22-9.22V10.61C47.82,5.52,43.7,1.4,38.61,1.4z M45.4,36.76c0,3.99-3.24,7.23-7.23,7.23H10.14
				c-3.99,0-7.23-3.24-7.23-7.23v-25.9c0-3.99,3.24-7.23,7.23-7.23h28.03c3.99,0,7.23,3.24,7.23,7.23V36.76z"/>
		</g>
	</g>
	<g>
		<path class="st4" d="M20.72,20.07h-3.61c-0.18,0-0.33-0.15-0.33-0.33v-0.55c0-0.18,0.15-0.33,0.33-0.33h3.61
			c0.18,0,0.33,0.15,0.33,0.33v0.55C21.05,19.92,20.9,20.07,20.72,20.07z"/>
	</g>
	<g>
		<path class="st4" d="M15.09,41.28h-3.61c-0.18,0-0.33-0.15-0.33-0.33V40.4c0-0.18,0.15-0.33,0.33-0.33h3.61
			c0.18,0,0.33,0.15,0.33,0.33v0.55C15.43,41.13,15.28,41.28,15.09,41.28z"/>
	</g>
	<g>
		<path class="st4" d="M31.42,32.91h-3.24c-0.18,0-0.33-0.15-0.33-0.33v-0.55c0-0.18,0.15-0.33,0.33-0.33h3.24
			c0.18,0,0.33,0.15,0.33,0.33v0.55C31.75,32.76,31.61,32.91,31.42,32.91z"/>
	</g>
	<g>
		<path class="st4" d="M9.65,11.54H5.87c-0.13,0-0.24-0.11-0.24-0.24v-0.73c0-0.13,0.11-0.24,0.24-0.24h3.79
			c0.13,0,0.24,0.11,0.24,0.24v0.73C9.9,11.43,9.79,11.54,9.65,11.54z"/>
	</g>
	<g>
		<path class="st4" d="M31.75,10.66h-3.17c-0.25,0-0.45-0.2-0.45-0.45v-0.7c0-0.25,0.2-0.45,0.45-0.45h3.17
			c0.25,0,0.45,0.2,0.45,0.45v0.7C32.2,10.46,32,10.66,31.75,10.66z"/>
	</g>
	<g>
		<path class="st5" d="M41.84,13.22h-2.28c-0.17,0-0.32-0.14-0.32-0.32v-0.76c0-0.17,0.14-0.32,0.32-0.32h2.28
			c0.17,0,0.32,0.14,0.32,0.32v0.76C42.15,13.08,42.01,13.22,41.84,13.22z"/>
	</g>
	<g>
		<path class="st2" d="M37.18,11.2h-2.84c-0.31,0-0.56-0.25-0.56-0.56v-0.47c0-0.31,0.25-0.56,0.56-0.56h2.84
			c0.31,0,0.56,0.25,0.56,0.56v0.47C37.74,10.94,37.49,11.2,37.18,11.2z"/>
	</g>
	<g>
		<path class="st2" d="M9.12,32.1H5.83c-0.31,0-0.56-0.25-0.56-0.56v-0.47c0-0.31,0.25-0.56,0.56-0.56h3.28
			c0.31,0,0.56,0.25,0.56,0.56v0.47C9.68,31.85,9.43,32.1,9.12,32.1z"/>
	</g>
	<g>
		<path class="st6" d="M31.21,13.31h-1.94c-0.17,0-0.3-0.14-0.3-0.3v-0.35c0-0.17,0.14-0.3,0.3-0.3h1.94c0.17,0,0.3,0.14,0.3,0.3
			v0.35C31.51,13.18,31.37,13.31,31.21,13.31z"/>
	</g>
	<g>
		<path class="st6" d="M31.21,14.9h-1.94c-0.17,0-0.3-0.14-0.3-0.3v-0.35c0-0.17,0.14-0.3,0.3-0.3h1.94c0.17,0,0.3,0.14,0.3,0.3
			v0.35C31.51,14.76,31.37,14.9,31.21,14.9z"/>
	</g>
	<g>
		<path class="st6" d="M25.56,8.01h-1.94c-0.17,0-0.3-0.14-0.3-0.3V7.35c0-0.17,0.14-0.3,0.3-0.3h1.94c0.17,0,0.3,0.14,0.3,0.3V7.7
			C25.86,7.87,25.73,8.01,25.56,8.01z"/>
	</g>
	<g>
		<path class="st6" d="M25.56,9.59h-1.94c-0.17,0-0.3-0.14-0.3-0.3V8.94c0-0.17,0.14-0.3,0.3-0.3h1.94c0.17,0,0.3,0.14,0.3,0.3v0.35
			C25.86,9.45,25.73,9.59,25.56,9.59z"/>
	</g>
	<g>
		<path class="st6" d="M25.56,11.3h-1.94c-0.17,0-0.3-0.14-0.3-0.3v-0.35c0-0.17,0.14-0.3,0.3-0.3h1.94c0.17,0,0.3,0.14,0.3,0.3V11
			C25.86,11.17,25.73,11.3,25.56,11.3z"/>
	</g>
	<g>
		<path class="st6" d="M19.55,31.79h-1.94c-0.17,0-0.3-0.14-0.3-0.3v-0.35c0-0.17,0.14-0.3,0.3-0.3h1.94c0.17,0,0.3,0.14,0.3,0.3
			v0.35C19.85,31.66,19.71,31.79,19.55,31.79z"/>
	</g>
	<g>
		<path class="st6" d="M19.55,33.38h-1.94c-0.17,0-0.3-0.14-0.3-0.3v-0.35c0-0.17,0.14-0.3,0.3-0.3h1.94c0.17,0,0.3,0.14,0.3,0.3
			v0.35C19.85,33.24,19.71,33.38,19.55,33.38z"/>
	</g>
	<g>
		<path class="st6" d="M19.55,35.09h-1.94c-0.17,0-0.3-0.14-0.3-0.3v-0.35c0-0.17,0.14-0.3,0.3-0.3h1.94c0.17,0,0.3,0.14,0.3,0.3
			v0.35C19.85,34.96,19.71,35.09,19.55,35.09z"/>
	</g>
	<g>
		<path class="st6" d="M25.56,12.89h-1.94c-0.17,0-0.3-0.14-0.3-0.3v-0.35c0-0.17,0.14-0.3,0.3-0.3h1.94c0.17,0,0.3,0.14,0.3,0.3
			v0.35C25.86,12.75,25.73,12.89,25.56,12.89z"/>
	</g>
	<g>
		<path class="st6" d="M14.14,10.61h-1.76c-0.29,0-0.52-0.23-0.52-0.52V9.55c0-0.29,0.23-0.52,0.52-0.52h1.76
			c0.29,0,0.52,0.23,0.52,0.52v0.55C14.66,10.38,14.43,10.61,14.14,10.61z"/>
	</g>
	<g>
		<path class="st6" d="M42.58,33.99h-2.35c-0.29,0-0.52-0.23-0.52-0.52v-0.55c0-0.29,0.23-0.52,0.52-0.52h2.35
			c0.29,0,0.52,0.23,0.52,0.52v0.55C43.1,33.76,42.87,33.99,42.58,33.99z"/>
	</g>
	<g>
		<path class="st6" d="M19.19,13.65h-0.87c-0.33,0-0.6-0.27-0.6-0.6v-1.97c0-0.33,0.27-0.6,0.6-0.6h0.87c0.33,0,0.6,0.27,0.6,0.6
			v1.97C19.79,13.39,19.52,13.65,19.19,13.65z"/>
	</g>
	<g>
		<path class="st6" d="M14.43,33.9h-2.19c-0.15,0-0.27-0.12-0.27-0.27v-0.9c0-0.15,0.12-0.27,0.27-0.27h2.19
			c0.15,0,0.27,0.12,0.27,0.27v0.9C14.7,33.78,14.58,33.9,14.43,33.9z"/>
	</g>
	<g>
		<path class="st6" d="M30.64,35.42H29.1c-0.15,0-0.27-0.12-0.27-0.27v-1.07c0-0.15,0.12-0.27,0.27-0.27h1.54
			c0.15,0,0.27,0.12,0.27,0.27v1.07C30.91,35.3,30.79,35.42,30.64,35.42z"/>
	</g>
	<g>
		<path class="st5" d="M36.5,31.53h-2.17c-0.15,0-0.27-0.12-0.27-0.27v-1.07c0-0.15,0.12-0.27,0.27-0.27h2.17
			c0.15,0,0.27,0.12,0.27,0.27v1.07C36.77,31.41,36.65,31.53,36.5,31.53z"/>
	</g>
	<g>
		<path class="st6" d="M25.81,30.38h-3.18c-0.15,0-0.27-0.12-0.27-0.27v-1.07c0-0.15,0.12-0.27,0.27-0.27h3.18
			c0.15,0,0.27,0.12,0.27,0.27v1.07C26.07,30.26,25.95,30.38,25.81,30.38z"/>
	</g>
	<g>
		<path class="st6" d="M30.79,10.47h-1.19c-0.14,0-0.26-0.12-0.26-0.26V9.54c0-0.14,0.12-0.26,0.26-0.26h1.19
			c0.14,0,0.26,0.12,0.26,0.26v0.67C31.05,10.35,30.93,10.47,30.79,10.47z"/>
	</g>
</g>
</svg>
