<?xml version="1.0" encoding="UTF-8"?>
<svg id="Camada_1" data-name="Camada 1" xmlns="http://www.w3.org/2000/svg" viewBox="0 0 30.36 41.7">
  <defs>
    <style>
      .cls-1 {
        fill: #1d1d1b;
        stroke-width: 0px;
      }
    </style>
  </defs>
  <path class="cls-1" d="m28.02,23.82c1.56,1.96,2.34,4.18,2.34,6.66,0,2.12-.55,4.03-1.65,5.73-1.1,1.7-2.69,3.04-4.77,4.02-2.08.98-4.5,1.47-7.26,1.47H0V0h15.9c2.84,0,5.28.48,7.32,1.44,2.04.96,3.58,2.25,4.62,3.87,1.04,1.62,1.56,3.43,1.56,5.43,0,2.4-.64,4.4-1.92,6-1.28,1.6-3,2.78-5.16,3.54,2.24.4,4.14,1.58,5.7,3.54Zm-21.18-6.3h8.46c2.24,0,3.99-.51,5.25-1.53s1.89-2.49,1.89-4.41-.63-3.35-1.89-4.41c-1.26-1.06-3.01-1.59-5.25-1.59H6.84v11.94Zm14.7,16.92c1.32-1.12,1.98-2.68,1.98-4.68s-.7-3.66-2.1-4.86c-1.4-1.2-3.26-1.8-5.58-1.8H6.84v13.02h9.24c2.32,0,4.14-.56,5.46-1.68Z"/>
</svg>